HIERARCHY
ROOT Hips
{
	OFFSET 0.00000 0.00000 0.00000
	CHANNELS 6 Xposition Yposition Zposition Yrotation Zrotation Xrotation 
	JOINT Lumbar
	{
		OFFSET 0 0 0
		CHANNELS 3 Zrotation Xrotation Yrotation
		JOINT Neck
		{
			OFFSET 0.00 0.2701 0.00
			CHANNELS 3 Zrotation Xrotation Yrotation
			End Site
			{
				OFFSET 0.00 0.1379 0.00
			}
		}
		JOINT RightShoulder
		{
			OFFSET 0.0119 0.2289 0.1181
			CHANNELS 3 Zrotation Xrotation Yrotation
			JOINT RightElbow
			{
				OFFSET 0.00 -0.1475 0.00
				CHANNELS 2 Zrotation Yrotation
				JOINT RightWrist
				{
					OFFSET 0.00 -0.1605 0.00
					CHANNELS 2 Zrotation Xrotation
					End Site
					{
						OFFSET 0.0040 -0.1068 0.0006
					}
				}
			}
		}
		JOINT LeftShoulder
		{
			OFFSET 0.0119 0.2289 -0.1181
			CHANNELS 3 Zrotation Xrotation Yrotation
			JOINT LeftElbow
			{
				OFFSET 0.00 -0.1475 0.00
				CHANNELS 2 Zrotation Yrotation
				JOINT LeftWrist
				{
					OFFSET 0.00 -0.1605 0.00
					CHANNELS 2 Zrotation Xrotation
					End Site
					{
						OFFSET 0.0040 -0.1068 -0.0006
					}
				}
			}
		}
	}
	JOINT RightHip
	{
		OFFSET 0.0316 -0.0424 0.0458
		CHANNELS 3 Zrotation Xrotation Yrotation
		JOINT RightKnee
		{
			OFFSET 0.00 -0.2438 0.00
			CHANNELS 1 Zrotation
			JOINT RightAnkle
			{
				OFFSET 0.00 -0.2449 0.00
				CHANNELS 3 Zrotation Xrotation Yrotation
				End Site
				{
					OFFSET 0.1237 -0.0542 0.0051
				}
			}
		}
	}
	JOINT LeftHip
	{
		OFFSET 0.0316 -0.0424 -0.0458
		CHANNELS 3 Zrotation Xrotation Yrotation
		JOINT LeftKnee
		{
			OFFSET 0.00 -0.2438 0.00
			CHANNELS 1 Zrotation
			JOINT LeftAnkle
			{
				OFFSET 0.00 -0.2449 0.00
				CHANNELS 3 Zrotation Xrotation Yrotation
				End Site
				{
					OFFSET 0.1237 -0.0542 -0.0051
				}
			}
		}
	}
}
MOTION
Frames: 22
Frame Time: 0.02
-0.02406 -0.00473 -0.00989 19.86278 -29.53555 -9.00695 41.53869 -0.30867 17.28382 -2.54496 12.5774 -0.79326 52.66018 -17.59104 53.60551 63.61977 88.82283 16.28312 -2.29253 22.36045 35.24876 -29.7737 112.54037 -84.26515 -1.78517 -5.52588 48.22884 -4.43599 -7.0895 -22.071 -7.72754 -4.03304 -2.82329 52.48835 8.59757 2.2875 -27.62652 -6.99681 2.92525 2.18122
-0.02425 -0.00474 -0.00975 19.86659 -29.59129 -9.07142 41.51729 -0.28968 17.20006 -2.40284 12.66407 -0.79335 56.29184 -18.06357 55.41712 58.65049 88.52147 13.65156 -2.27673 22.34006 34.72709 -30.9343 112.45214 -84.15294 -1.78038 -5.32553 48.29021 -4.34301 -6.89949 -21.99721 -7.7541 -4.06196 -2.84506 52.6146 8.6167 2.16406 -27.62801 -7.00753 2.93249 2.18546
-0.02439 -0.00475 -0.00967 20.03323 -29.64979 -9.17545 41.49924 -0.27452 17.08387 -2.24782 12.69399 -0.79341 59.79236 -19.37748 57.77331 53.14776 88.65357 11.17365 -2.20942 22.52509 34.12978 -32.21388 112.28903 -84.04416 -1.66903 -4.69461 48.2972 -4.2349 -6.67743 -21.91036 -7.79279 -4.11485 -2.88188 52.75212 8.6317 2.0176 -27.63372 -7.01841 2.92534 2.1812
-0.02454 -0.00477 -0.00957 20.13441 -29.70538 -9.2631 41.48087 -0.25753 16.98123 -2.10355 12.74704 -0.79349 63.25385 -20.31509 59.80889 47.9351 88.61561 8.71722 -2.12533 22.6139 33.56644 -33.43085 112.1568 -84.00076 -1.58307 -4.28483 48.32334 -4.13528 -6.48139 -21.83086 -7.82568 -4.15643 -2.91153 52.88097 8.64791 1.87821 -27.63778 -7.02884 2.92425 2.18052
-0.02475 -0.00478 -0.00945 20.2019 -29.76913 -9.3452 41.45775 -0.24011 16.88111 -1.93683 12.81095 -0.79356 67.16567 -21.23434 62.1464 42.45216 88.45593 5.85119 -2.20084 22.72012 33.00093 -34.6851 112.03492 -83.687 -1.59499 -3.78243 48.3733 -4.02906 -6.24137 -21.74406 -7.85995 -4.19964 -2.94259 53.02711 8.66546 1.74608 -27.64067 -7.04108 2.92576 2.18129
-0.02482 -0.0048 -0.00938 20.37704 -29.81596 -9.44755 41.4451 -0.22498 16.76922 -1.81499 12.83859 -0.79363 70.08819 -22.38943 63.98791 37.44298 88.66549 3.88654 -1.94303 22.83544 32.42461 -35.88753 111.8762 -83.92422 -1.37868 -3.36601 48.36047 -3.93289 -6.08309 -21.66994 -7.89416 -4.2453 -2.9743 53.13868 8.68015 1.59776 -27.64702 -7.0495 2.91805 2.17684
-0.02454 -0.00479 -0.00946 20.8129 -29.81686 -9.59899 41.46188 -0.21307 16.6299 -1.81443 12.78358 -0.7937 70.39537 -23.98246 64.31036 33.74547 89.66017 4.34316 -0.6846 22.94229 31.82361 -36.94075 111.61718 -85.78633 -0.5436 -3.27756 48.18946 -3.86861 -6.16566 -21.63336 -7.92513 -4.29047 -3.00377 53.15636 8.68328 1.38837 -27.66192 -7.04736 2.89052 2.16125
-0.02412 -0.00478 -0.0096 21.35026 -29.80026 -9.76866 41.48889 -0.20382 16.48052 -1.86088 12.69328 -0.79376 69.69027 -25.78344 64.11576 30.57986 91.02846 5.70989 0.89026 23.04719 31.21769 -37.93289 111.32711 -88.18423 0.51478 -3.28973 47.95695 -3.81494 -6.32977 -21.61037 -7.95557 -4.33745 -3.0334 53.13784 8.68445 1.16755 -27.68014 -7.04131 2.85388 2.14053
-0.02375 -0.00477 -0.00971 21.83904 -29.79048 -9.92811 41.51019 -0.19491 16.33823 -1.88961 12.61711 -0.79382 69.39187 -27.49377 64.17305 27.25595 92.3178 6.68323 2.25875 23.14207 30.62254 -38.93886 111.06241 -90.26646 1.46195 -3.26483 47.75111 -3.75597 -6.45115 -21.58173 -7.98638 -4.38461 -3.06324 53.13271 8.69006 0.9681 -27.69681 -7.03699 2.81982 2.12127
-0.02342 -0.00477 -0.00982 22.3451 -29.78536 -10.09758 41.53573 -0.17964 16.18496 -1.90193 12.54773 -0.79388 69.32179 -29.21993 64.18988 23.54008 93.26573 7.57774 3.89189 23.29187 29.98671 -40.01042 110.74717 -92.64839 2.45493 -3.19373 47.54807 -3.69814 -6.59518 -21.55017 -8.01731 -4.42871 -3.09258 53.1407 8.68153 0.70262 -27.71381 -7.03291 2.79135 2.10509
-0.02299 -0.00475 -0.00995 22.83564 -29.76663 -10.2494 41.55528 -0.1781 16.05155 -1.96045 12.45564 -0.79395 68.52827 -30.94827 64.146 20.79928 94.97408 8.84868 5.04994 23.32205 29.43789 -40.926 110.53127 -94.53978 3.40284 -3.24194 47.32622 -3.6411 -6.71214 -21.52836 -8.04739 -4.47889 -3.12261 53.11292 8.70079 0.5683 -27.73084 -7.02737 2.7499 2.08174
-0.02234 -0.0047 -0.01014 23.27009 -29.71214 -10.35275 41.55166 -0.21466 15.98491 -2.12912 12.31795 -0.79401 66.06638 -32.653 64.19365 20.40872 98.98148 10.95241 4.80416 23.03959 29.11016 -41.45391 110.59376 -94.88677 4.18141 -3.65243 47.05974 -3.57981 -6.73123 -21.52808 -8.07783 -4.54889 -3.1561 52.99229 8.80835 0.83435 -27.74741 -7.01898 2.66948 2.03675
-0.0216 -0.00464 -0.01035 23.68209 -29.64497 -10.43657 41.54234 -0.26475 15.93719 -2.34363 12.15755 -0.79408 62.90052 -34.34303 64.17462 21.02154 103.68692 13.39855 4.07208 22.63306 28.87443 -41.8214 110.75821 -94.73078 4.9039 -4.17187 46.77826 -3.51969 -6.72079 -21.53758 -8.1069 -4.62419 -3.18991 52.83736 8.94204 1.22691 -27.76381 -7.00922 2.57736 1.98533
-0.0209 -0.00459 -0.01054 24.09635 -29.58522 -10.52608 41.53839 -0.30807 15.87452 -2.54139 12.00196 -0.79415 59.99912 -36.02345 64.09119 21.31954 107.87724 15.67844 3.57153 22.27035 28.61029 -42.24292 110.87886 -94.84583 5.646 -4.60462 46.5089 -3.46165 -6.72643 -21.54409 -8.13483 -4.69466 -3.22246 52.70003 9.0563 1.53771 -27.78014 -6.99992 2.49419 1.93895
-0.02019 -0.00453 -0.01075 24.54915 -29.51798 -10.62991 41.52329 -0.35414 15.83752 -2.72442 11.86736 -0.79422 57.28074 -37.78653 64.37314 21.04809 112.9076 18.04059 3.03641 21.95864 28.28912 -42.74083 110.98824 -94.80758 6.42353 -5.19355 46.21462 -3.39313 -6.72468 -21.54505 -8.17013 -4.77544 -3.25976 52.5531 9.20174 1.94808 -27.79732 -6.99112 2.39542 1.88351
-0.01949 -0.00448 -0.01092 24.91329 -29.46343 -10.69877 41.52962 -0.39763 15.75267 -2.94731 11.68536 -0.79429 54.04692 -39.36348 63.90589 22.18363 116.36009 20.29396 2.4552 21.51391 28.10891 -43.04389 111.14502 -94.95308 7.10754 -5.48684 45.96994 -3.34637 -6.729 -21.55958 -8.18984 -4.83597 -3.28721 52.41832 9.28929 2.18433 -27.81253 -6.98104 2.32639 1.8454
-0.01889 -0.00444 -0.01098 25.0518 -29.44836 -10.67796 41.59932 -0.43086 15.52269 -3.27805 11.36774 -0.79437 49.40069 -40.49277 61.20763 27.04648 115.1869 22.21647 1.85099 20.70917 28.29325 -42.8346 111.41407 -95.80539 7.57565 -4.89376 45.86265 -3.36105 -6.76722 -21.6104 -8.16613 -4.83919 -3.28744 52.32716 9.20352 1.88214 -27.8233 -6.96742 2.34332 1.85751
-0.01831 -0.0044 -0.01099 25.09871 -29.44643 -10.62215 41.69021 -0.46096 15.24556 -3.64521 11.00537 -0.79445 44.29761 -41.4222 57.79382 33.2698 112.41793 24.00233 1.21841 19.77938 28.6165 -42.43764 111.72622 -96.84353 7.94525 -4.00692 45.80686 -3.39719 -6.81013 -21.67425 -8.12693 -4.82187 -3.27773 52.24942 9.05987 1.40513 -27.83189 -6.95265 2.39049 1.88718
-0.01773 -0.00435 -0.01102 25.17815 -29.43759 -10.58087 41.76949 -0.49236 14.99549 -3.98979 10.67029 -0.79454 39.51164 -42.40107 54.82694 38.81263 110.44189 25.81225 0.60675 18.92159 28.87786 -42.13571 112.01472 -97.74317 8.33988 -3.28268 45.72972 -3.42243 -6.84422 -21.73131 -8.09525 -4.81399 -3.2725 52.16444 8.94744 1.02604 -27.84082 -6.93865 2.42322 1.90832
-0.01711 -0.00432 -0.01106 25.29556 -29.4319 -10.54469 41.85692 -0.52479 14.7221 -4.36224 10.30473 -0.79462 34.22852 -43.55505 51.34243 44.66132 108.20489 27.79871 -0.05593 17.99438 29.13802 -41.78676 112.32414 -98.8517 8.81542 -2.4399 45.64274 -3.45272 -6.9063 -21.79242 -8.06138 -4.80578 -3.26737 52.08246 8.81541 0.57447 -27.85249 -6.92352 2.45839 1.93151
-0.01657 -0.00427 -0.01107 25.31206 -29.42337 -10.48989 41.93249 -0.55412 14.48611 -4.68371 9.99275 -0.7947 29.89384 -44.29606 48.76831 50.17302 106.1229 29.37618 -0.61234 17.18498 29.43142 -41.49359 112.59861 -99.57839 9.10048 -1.77225 45.58947 -3.47734 -6.91065 -21.84803 -8.02854 -4.79339 -3.25973 51.99861 8.70984 0.22934 -27.85794 -6.91054 2.49591 1.95474
-0.01623 -0.00419 -0.01102 25.07543 -29.40008 -10.39182 41.97002 -0.57592 14.36241 -4.86353 9.83622 -0.79476 28.18999 -43.95195 48.86976 54.49804 104.85814 29.8899 -0.87038 16.7212 29.79099 -41.39842 112.76784 -99.18426 8.8774 -1.66527 45.60983 -3.48322 -6.76358 -21.88524 -8.00128 -4.77372 -3.24715 51.90011 8.69403 0.23265 -27.84667 -6.90346 2.53158 1.97311
